<?xml version="1.0" encoding="iso-8859-1"?>
<!-- Generator: Adobe Illustrator 19.0.0, SVG Export Plug-In . SVG Version: 6.00 Build 0)  -->
<svg version="1.1" id="Capa_1" xmlns="http://www.w3.org/2000/svg" xmlns:xlink="http://www.w3.org/1999/xlink" x="0px" y="0px"
	 viewBox="0 0 512 512" style="enable-background:new 0 0 512 512;" xml:space="preserve">
<polygon style="fill:#E73835;" points="116.841,146.708 134.236,294.564 151.631,311.959 169.026,512 342.974,512 360.369,311.959 
	377.764,294.564 395.159,146.708 "/>
<rect x="90.749" y="103.221" style="fill:#7A0E1E;" width="330.502" height="43.487"/>
<path style="fill:#4F5052;" d="M264.697,103.221h-17.395V42.339c-0.009-3.114,1.653-5.993,4.349-7.549L312.533,0l8.697,15.099
	l-56.533,32.285L264.697,103.221L264.697,103.221z"/>
<path style="fill:#F5F5F7;" d="M264.697,512l28.414-42.617c25.136-37.703,26.301-86.513,2.983-125.373l0,0
	c-24.292-40.495-21.926-91.601,5.993-129.679l49.584-67.622h-86.974l-29.232,62.621c-19.787,42.409-17.221,91.871,6.854,132.001l0,0
	c24.779,41.278,26.745,92.358,5.218,135.419L229.908,512L264.697,512L264.697,512z"/>
<g>
</g>
<g>
</g>
<g>
</g>
<g>
</g>
<g>
</g>
<g>
</g>
<g>
</g>
<g>
</g>
<g>
</g>
<g>
</g>
<g>
</g>
<g>
</g>
<g>
</g>
<g>
</g>
<g>
</g>
</svg>
