<?xml version="1.0" encoding="iso-8859-1"?>
<!-- Generator: Adobe Illustrator 19.0.0, SVG Export Plug-In . SVG Version: 6.00 Build 0)  -->
<svg version="1.1" id="Capa_1" xmlns="http://www.w3.org/2000/svg" xmlns:xlink="http://www.w3.org/1999/xlink" x="0px" y="0px"
	 viewBox="0 0 512 512" style="enable-background:new 0 0 512 512;" xml:space="preserve">
<g>
	<polygon style="fill:#D6EAF1;" points="143.406,224.738 169.389,510.554 342.611,510.554 368.594,224.738 	"/>
	<rect x="117.423" y="190.093" style="fill:#D6EAF1;" width="277.155" height="34.644"/>
</g>
<path style="fill:#D5DFE3;" d="M143.406,190.093c0-52.616,42.656-95.272,95.272-95.272h34.644c52.616,0,95.272,42.656,95.272,95.272
	H143.406z"/>
<g>
	<path style="fill:#86C8D6;" d="M264.661,491.066h-17.322V25.533c0-3.724,2.39-7.033,5.924-8.211L305.23,0l5.474,16.456
		l-46.042,15.321V491.066L264.661,491.066z"/>
	<path style="fill:#86C8D6;" d="M342.611,510.554c0,0-168.025,1.446-172.858,1.446l-20.839-226.635
		c9.969,0.182,19.487,4.192,26.59,11.199c4.244,4.244,6.331,6.123,11.19,6.123c4.859,0,6.929-1.879,11.181-6.123
		c10.445-12.94,29.404-14.966,42.344-4.521c1.663,1.342,3.179,2.858,4.521,4.521c4.244,4.244,6.331,6.123,11.19,6.123
		c4.859,0,6.929-1.879,11.19-6.123c10.471-12.957,29.456-14.966,42.413-4.495c1.654,1.334,3.161,2.841,4.495,4.495
		c4.253,4.244,6.34,6.123,11.216,6.123s6.929-1.879,11.259-6.132c7.102-6.99,16.612-11,26.581-11.19L342.611,510.554z"/>
</g>
<g>
	<path style="fill:#D6EAF1;" d="M225.686,389.298c-11.961,0-21.653-9.692-21.653-21.653s9.692-21.653,21.653-21.653
		s21.653,9.692,21.653,21.653C247.339,379.607,237.647,389.298,225.686,389.298z M225.686,363.315c-2.39,0-4.331,1.94-4.331,4.331
		s1.94,4.331,4.331,4.331s4.331-1.94,4.331-4.331S228.085,363.315,225.686,363.315z"/>
	<path style="fill:#D6EAF1;" d="M268.992,449.926c-16.742,0-30.314-13.572-30.314-30.314c0-16.742,13.572-30.314,30.314-30.314
		c16.742,0,30.314,13.572,30.314,30.314C299.305,436.354,285.734,449.926,268.992,449.926z M268.992,406.621
		c-7.171,0-12.992,5.82-12.992,12.992c0,7.171,5.82,12.992,12.992,12.992c7.171,0,12.992-5.82,12.992-12.992
		S276.172,406.621,268.992,406.621z"/>
	<path style="fill:#D6EAF1;" d="M281.983,363.315c-9.57,0-17.322-7.752-17.322-17.322s7.752-17.322,17.322-17.322
		s17.322,7.752,17.322,17.322S291.554,363.315,281.983,363.315z"/>
</g>
<g>
</g>
<g>
</g>
<g>
</g>
<g>
</g>
<g>
</g>
<g>
</g>
<g>
</g>
<g>
</g>
<g>
</g>
<g>
</g>
<g>
</g>
<g>
</g>
<g>
</g>
<g>
</g>
<g>
</g>
</svg>
