<?xml version="1.0" encoding="iso-8859-1"?>
<!-- Generator: Adobe Illustrator 19.0.0, SVG Export Plug-In . SVG Version: 6.00 Build 0)  -->
<svg version="1.1" id="Layer_1" xmlns="http://www.w3.org/2000/svg" xmlns:xlink="http://www.w3.org/1999/xlink" x="0px" y="0px"
	 viewBox="0 0 512 512" style="enable-background:new 0 0 512 512;" xml:space="preserve">
<rect x="62.756" y="248.161" style="fill:#B5C1C6;" width="296.687" height="15.673"/>
<g>
	<path style="fill:#C3D1D8;" d="M73.048,256.001L73.048,256.001v-34.376c0-40.343-32.705-73.048-73.048-73.048l0,0v34.376
		C0,223.296,32.705,256.001,73.048,256.001z"/>
	<path style="fill:#C3D1D8;" d="M0,363.424L0,363.424v-34.376C0,288.705,32.705,256,73.048,256l0,0v34.376
		C73.048,330.719,40.343,363.424,0,363.424z"/>
	<path style="fill:#C3D1D8;" d="M512,256.001c0,13.51-4.608,26.436-13.019,38.368c-21.64,30.688-68.493,54.752-127.038,64.982
		c-16.175-21.88-27.345-47.689-31.817-75.734c-1.442-8.997-2.184-18.212-2.184-27.616c0-38.703,12.633-74.449,34.001-103.35
		C453.256,166.851,512,207.758,512,256.001z"/>
</g>
<path style="fill:#B5C1C6;" d="M498.981,294.369c-21.64,30.688-68.493,54.752-127.038,64.982
	c-16.175-21.88-27.345-47.689-31.817-75.734C340.126,283.618,435.723,332.184,498.981,294.369z"/>
<circle style="fill:#4D4D4D;" cx="411.823" cy="253.156" r="22.079"/>
<g>
	<path style="fill:#C3D1D8;" d="M289.785,147.3c11.728,15.142,20.259,32.751,26.078,51.226c5.769,18.51,8.66,38.005,8.672,57.474
		c0.009,19.471-2.884,38.967-8.652,57.48c-5.815,18.477-14.355,36.088-26.099,51.221c2.896-9.128,5.708-18.087,8.075-27.109
		c2.39-9.007,4.439-18.02,6.061-27.07c3.288-18.086,4.922-36.292,4.947-54.521c-0.002-18.23-1.638-36.44-4.926-54.527
		c-1.621-9.051-3.671-18.065-6.064-27.071C295.507,165.381,292.691,156.423,289.785,147.3z"/>
	<path style="fill:#C3D1D8;" d="M250.069,149.317c5.75,7.428,10.585,15.534,14.804,23.975c4.198,8.454,7.678,17.297,10.489,26.37
		c5.583,18.16,8.38,37.26,8.393,56.337c0.009,19.079-2.789,38.181-8.372,56.343c-2.808,9.075-6.289,17.918-10.491,26.372
		c-4.224,8.441-9.063,16.546-14.823,23.969c2.717-8.988,5.374-17.799,7.607-26.664c2.256-8.85,4.194-17.698,5.728-26.576
		c3.111-17.743,4.658-35.583,4.681-53.445c-0.002-17.862-1.552-35.705-4.661-53.449c-1.532-8.879-3.47-17.728-5.73-26.578
		C255.456,167.109,252.795,158.298,250.069,149.317z"/>
	<path style="fill:#C3D1D8;" d="M212.045,154.834c5.327,7.115,9.77,14.849,13.647,22.88c3.856,8.044,7.04,16.435,9.612,25.03
		c5.104,17.203,7.655,35.24,7.667,53.256c0.009,18.016-2.542,36.056-7.647,53.26c-2.569,8.596-5.755,16.989-9.614,25.032
		c-3.882,8.03-8.329,15.763-13.666,22.874c2.254-8.594,4.51-16.994,6.397-25.423c1.911-8.417,3.562-16.811,4.867-25.221
		c2.651-16.807,3.972-33.655,3.994-50.523c-0.001-16.869-1.323-33.719-3.973-50.528c-1.302-8.41-2.954-16.806-4.869-25.223
		C216.568,171.821,214.308,163.423,212.045,154.834z"/>
	<path style="fill:#C3D1D8;" d="M175.453,164.029c4.679,6.566,8.525,13.661,11.881,20.998c3.334,7.349,6.072,14.985,8.283,22.787
		c4.381,15.616,6.561,31.91,6.571,48.186s-2.17,32.573-6.551,48.19c-2.209,7.803-4.948,15.44-8.285,22.788
		c-3.361,7.336-7.212,14.431-11.9,20.992c1.545-7.911,3.189-15.607,4.553-23.303c1.388-7.684,2.603-15.321,3.56-22.954
		c1.956-15.255,2.934-30.475,2.955-45.714c0.001-15.239-0.979-30.462-2.934-45.718c-0.955-7.634-2.171-15.272-3.562-22.955
		C178.657,179.63,177.008,171.934,175.453,164.029z"/>
	<path style="fill:#C3D1D8;" d="M140.094,177.79c3.835,5.69,6.905,11.795,9.588,18.072c2.658,6.288,4.819,12.791,6.565,19.412
		c3.448,13.253,5.15,26.996,5.161,40.726c0.011,13.73-1.693,27.475-5.14,40.729c-1.743,6.623-3.905,13.125-6.567,19.413
		c-2.686,6.278-5.762,12.381-9.607,18.067c0.621-6.833,1.472-13.441,2.156-20.022c0.708-6.569,1.363-13.071,1.871-19.548
		c1.06-12.946,1.6-25.786,1.617-38.641c0.003-12.854-0.537-25.697-1.597-38.644c-0.507-6.478-1.161-12.98-1.873-19.549
		C141.58,191.227,140.725,184.618,140.094,177.79z"/>
	<path style="fill:#C3D1D8;" d="M105.738,198.897c5.532,8.532,8.961,17.95,11.399,27.58c2.373,9.652,3.484,19.594,3.5,29.523
		c0.002,9.931-1.11,19.874-3.478,29.527c-2.435,9.632-5.87,19.05-11.421,27.577c-0.85-10.119-0.746-19.637-0.827-29.089L104.966,256
		l-0.032-28.017c0.034-4.721,0.031-9.471,0.126-14.297C105.178,208.851,105.261,203.972,105.738,198.897z"/>
</g>
<g>
</g>
<g>
</g>
<g>
</g>
<g>
</g>
<g>
</g>
<g>
</g>
<g>
</g>
<g>
</g>
<g>
</g>
<g>
</g>
<g>
</g>
<g>
</g>
<g>
</g>
<g>
</g>
<g>
</g>
</svg>
