<?xml version="1.0" encoding="iso-8859-1"?>
<!-- Generator: Adobe Illustrator 19.0.0, SVG Export Plug-In . SVG Version: 6.00 Build 0)  -->
<svg version="1.1" id="Capa_1" xmlns="http://www.w3.org/2000/svg" xmlns:xlink="http://www.w3.org/1999/xlink" x="0px" y="0px"
	 viewBox="0 0 483.761 483.761" style="enable-background:new 0 0 483.761 483.761;" xml:space="preserve">
<g transform="matrix(1.25 0 0 -1.25 0 45)">
	<g>
		<g>
			<g transform="translate(18 1)">
				<path style="fill:#55ACEE;" d="M175.505-346.156c-45.511,0-102.4-11.378-102.4,11.378v170.667
					c0,0-25.134-159.289-34.133-182.044c-4.187-10.581-56.889-5.689-56.889,5.689c0,40.175,45.511,267.378,56.889,290.133
					S95.86-4.822,118.616-4.822c0,0-13.585,24.735,11.378,34.133C141.223,33.544,157.129,35,175.505,35V-346.156z"/>
				<path style="fill:#55ACEE;" d="M175.505-346.156c45.511,0,102.4-11.378,102.4,11.378v170.667c0,0,28.729-172.032,34.133-182.044
					c5.678-10.502,56.889-5.689,56.889,5.689c0,40.175-45.511,267.378-56.889,290.133S255.149-4.822,232.393-4.822
					c0,0,13.585,24.735-11.378,34.133C209.786,33.544,198.26,35,175.505,35V-346.156z"/>
			</g>
			<path style="fill:#226699;" d="M147.993,18.933c0,6.281,0,11.378,45.511,11.378s45.511-5.097,45.511-11.378
				S218.638-3.822,193.505-3.822S147.993,12.653,147.993,18.933"/>
			<path style="fill:#3B88C3;" d="M102.482-100.533c-1.729,0-3.436,0.785-4.551,2.276L63.798-52.747
				c-1.889,2.514-1.377,6.076,1.138,7.964c2.503,1.889,6.064,1.377,7.953-1.138l34.133-45.511c1.889-2.514,1.377-6.076-1.138-7.964
				C104.872-100.158,103.666-100.533,102.482-100.533"/>
			<path id="SVGCleanerId_0" style="fill:#3B88C3;" d="M193.505-339.467c-3.14,0-5.689,2.549-5.689,5.689V-15.2
				c0,3.14,2.549,5.689,5.689,5.689c3.14,0,5.689-2.549,5.689-5.689v-318.578C199.193-336.918,196.645-339.467,193.505-339.467"/>
			<g>
				<path style="fill:#3B88C3;" d="M91.446-111.922c-0.74,0-1.49,0.148-2.219,0.455l-36.193,15.36
					c-2.901,1.229-4.255,4.562-3.026,7.452c1.24,2.901,4.562,4.233,7.464,3.026L93.665-101c2.901-1.217,4.244-4.562,3.015-7.452
					C95.758-110.625,93.653-111.922,91.446-111.922"/>
				<path style="fill:#3B88C3;" d="M85.723-143.086c-0.592,0-1.195,0.091-1.798,0.296l-34.133,11.378
					c-2.981,0.99-4.597,4.21-3.595,7.191c0.99,2.97,4.176,4.608,7.191,3.595l34.133-11.378c2.981-0.99,4.597-4.21,3.595-7.191
					C90.32-141.584,88.101-143.086,85.723-143.086"/>
				<path style="fill:#3B88C3;" d="M78.76-176.048c-0.592,0-1.195,0.091-1.798,0.284l-34.133,11.378
					c-2.981,0.99-4.597,4.21-3.595,7.202c0.99,2.97,4.187,4.574,7.191,3.595l34.133-11.366c2.981-1.001,4.597-4.221,3.595-7.202
					C83.368-174.534,81.138-176.048,78.76-176.048"/>
				<path style="fill:#3B88C3;" d="M72.286-209.487c-0.592,0-1.195,0.091-1.798,0.284l-34.133,11.378
					c-2.981,1.001-4.597,4.221-3.595,7.202c0.99,2.981,4.198,4.619,7.191,3.607l34.133-11.378c2.981-1.001,4.597-4.221,3.595-7.202
					C76.882-207.974,74.664-209.487,72.286-209.487"/>
			</g>
			<path id="SVGCleanerId_1" style="fill:#3B88C3;" d="M64.435-241.959c-0.592,0-1.195,0.091-1.798,0.284l-34.133,11.378
				c-2.981,1.001-4.597,4.221-3.595,7.202c0.99,2.97,4.198,4.608,7.191,3.607l34.133-11.378c2.981-1.001,4.597-4.221,3.595-7.202
				C69.032-240.446,66.813-241.959,64.435-241.959"/>
			<g transform="translate(-0.455 -2.672)">
				<path id="SVGCleanerId_1_1_" style="fill:#3B88C3;" d="M59.258-272.361c-0.592,0-1.195,0.091-1.798,0.284l-34.133,11.378
					c-2.981,1.001-4.597,4.221-3.595,7.202c0.99,2.97,4.198,4.608,7.191,3.607l34.133-11.378c2.981-1.001,4.597-4.221,3.595-7.202
					C63.855-270.847,61.636-272.361,59.258-272.361"/>
			</g>
			<g>
				<path style="fill:#3B88C3;" d="M53.103-303.615c-0.592,0-1.195,0.091-1.798,0.284l-34.133,11.378
					c-2.981,1.001-4.597,4.221-3.595,7.202c0.99,2.97,4.187,4.585,7.191,3.607L54.9-292.522c2.981-1.001,4.597-4.221,3.595-7.202
					C57.699-302.102,55.481-303.615,53.103-303.615"/>
				<path style="fill:#3B88C3;" d="M46.595-335.075c-0.592,0-1.195,0.091-1.798,0.284l-34.133,11.378
					c-2.981,1.001-4.597,4.221-3.595,7.202c0.99,2.97,4.176,4.608,7.191,3.607l34.133-11.378c2.981-1.001,4.597-4.221,3.595-7.202
					C51.191-333.562,48.973-335.075,46.595-335.075"/>
				<path style="fill:#3B88C3;" d="M143.727-328.407c-20.412,0-40.55,2.014-41.813,2.15c-3.129,0.307-5.404,3.095-5.097,6.224
					c0.33,3.118,3.106,5.45,6.235,5.086c0.466-0.034,46.023-4.574,68.107-0.08c3.095,0.614,6.076-1.354,6.713-4.449
					c0.626-3.072-1.365-6.076-4.437-6.713C165.242-327.85,154.445-328.407,143.727-328.407"/>
				<path style="fill:#3B88C3;" d="M132.69-293.318c-15.679,0-29.878,0.899-32.779,1.092c-3.129,0.205-5.507,2.924-5.291,6.053
					c0.216,3.129,2.799,5.575,6.064,5.302c15.053-1.013,56.912-2.537,69.495,2.48c2.924,1.172,6.235-0.239,7.396-3.163
					c1.172-2.924-0.25-6.235-3.163-7.384C165.731-292.408,148.471-293.318,132.69-293.318"/>
				<path style="fill:#3B88C3;" d="M146.537-257.148c-18.773,0-40.402,1.627-46.706,2.139c-3.118,0.262-5.45,3.004-5.211,6.133
					c0.262,3.129,3.049,5.45,6.144,5.2c29.275-2.355,63.124-3.129,69.074-0.273c2.844,1.354,6.235,0.159,7.589-2.674
					c1.365-2.833,0.159-6.235-2.674-7.589C170.1-256.443,158.939-257.148,146.537-257.148"/>
				<path style="fill:#3B88C3;" d="M146.105-221.991c-20.139,0-42.655,2.367-46.421,2.776c-3.118,0.341-5.382,3.152-5.04,6.281
					c0.33,3.118,3.106,5.427,6.269,5.029c15.303-1.673,57.56-4.983,69.302-0.364c2.913,1.195,6.224-0.284,7.384-3.197
					c1.149-2.935-0.296-6.235-3.22-7.384C168.394-221.217,157.642-221.991,146.105-221.991"/>
				<path style="fill:#3B88C3;" d="M146.628-183.785c-19.945,0-42.86,1.274-46.672,1.502c-3.129,0.182-5.53,2.867-5.348,6.007
					c0.182,3.14,2.833,5.746,6.007,5.348c15.724-0.91,59.017-2.697,70.417-0.137c3.072,0.717,6.121-1.217,6.804-4.289
					c0.694-3.061-1.229-6.11-4.301-6.793C168.132-183.375,157.847-183.785,146.628-183.785"/>
				<path style="fill:#3B88C3;" d="M100.286-151.733c-3.072,0-5.598,4.221-5.689,7.305c-0.08,3.14,2.401,6.645,5.541,6.724
					l71.999,2.344c2.81-0.125,5.757-2.185,5.848-5.325c0.08-3.129-2.401-7.407-5.541-7.498l-71.999-3.55H100.286z"/>
				<path style="fill:#3B88C3;" d="M170.749-117.6c-0.193,0-0.398,0.011-0.592,0.023l-54.818,5.678
					c-3.129,0.33-5.404,3.129-5.074,6.246c0.319,3.129,3.118,5.336,6.235,5.086l54.83-5.678c3.129-0.33,5.393-3.129,5.074-6.246
					C176.097-115.427,173.628-117.6,170.749-117.6"/>
				<path style="fill:#3B88C3;" d="M177.018-91.351c-0.99,0-1.968,0.25-2.879,0.785c-5.018,2.958-41.392,11.924-65.616,17.351
					c-3.072,0.683-5.006,3.732-4.312,6.793c0.683,3.061,3.709,4.961,6.793,4.312c10.035-2.241,60.507-13.71,68.904-18.648
					c2.708-1.593,3.607-5.086,2.014-7.782C180.864-90.35,178.964-91.351,177.018-91.351"/>
				<path style="fill:#3B88C3;" d="M172.342-55.022c-0.705,0-1.434,0.137-2.139,0.421c-13.653,5.53-57.799,8.852-73.66,9.671
					c-3.129,0.159-5.541,2.844-5.382,5.985c0.148,3.129,2.776,5.632,5.973,5.382c2.412-0.125,59.142-3.118,77.346-10.502
					c2.913-1.172,4.312-4.494,3.129-7.407C176.722-53.68,174.583-55.022,172.342-55.022"/>
				<path style="fill:#3B88C3;" d="M177.03-26.578h-0.273c-11.071,0-29.446,10.286-31.505,11.423
					c-2.753,1.513-3.766,4.881-2.241,7.634c1.513,2.753,4.972,3.698,7.726,2.207c6.884-3.789,20.196-9.921,26.556-10.229
					c3.14-0.148,5.564-2.64,5.416-5.78C182.559-24.37,180.045-26.578,177.03-26.578"/>
				<path style="fill:#3B88C3;" d="M284.982-100.533c-1.183,0-2.389,0.375-3.413,1.138c-2.503,1.889-3.015,5.45-1.138,7.964
					l34.133,45.511c1.9,2.514,5.461,3.004,7.964,1.138c2.514-1.889,3.026-5.45,1.138-7.964l-34.133-45.511
					C288.418-99.748,286.7-100.533,284.982-100.533"/>
			</g>
			<g transform="translate(0.044)">
				<path id="SVGCleanerId_0_1_" style="fill:#3B88C3;" d="M194.005-339.467c-3.14,0-5.689,2.549-5.689,5.689V-15.2
					c0,3.14,2.549,5.689,5.689,5.689c3.14,0,5.689-2.549,5.689-5.689v-318.578C199.694-336.918,197.145-339.467,194.005-339.467"/>
			</g>
			<g>
				<path style="fill:#3B88C3;" d="M296.132-111.922c-2.207,0-4.324,1.297-5.234,3.47c-1.229,2.89,0.125,6.235,3.015,7.452
					l36.181,15.371c2.856,1.206,6.235-0.125,7.464-3.026c1.229-2.89-0.125-6.224-3.015-7.452l-36.193-15.36
					C297.634-111.775,296.872-111.922,296.132-111.922"/>
				<path style="fill:#3B88C3;" d="M301.787-143.086c-2.378,0-4.597,1.502-5.404,3.891c-0.99,2.981,0.626,6.201,3.607,7.191
					l34.133,11.378c2.981,0.99,6.201-0.614,7.202-3.595c0.978-2.981-0.626-6.201-3.607-7.191l-34.133-11.378
					C302.982-142.995,302.39-143.086,301.787-143.086"/>
				<path style="fill:#3B88C3;" d="M308.761-176.048c-2.378,0-4.597,1.513-5.404,3.891c-0.99,2.981,0.626,6.201,3.607,7.202
					l34.133,11.366c2.981,0.956,6.201-0.614,7.202-3.595c0.978-2.992-0.626-6.212-3.607-7.202l-34.133-11.378
					C309.956-175.957,309.364-176.048,308.761-176.048"/>
			</g>
			<path id="SVGCleanerId_2" style="fill:#3B88C3;" d="M315.213-209.487c-2.378,0-4.597,1.513-5.404,3.891
				c-0.99,2.981,0.626,6.201,3.607,7.202l34.133,11.378c2.981,0.99,6.201-0.626,7.202-3.607c0.99-2.981-0.626-6.201-3.607-7.202
				l-34.133-11.378C316.407-209.396,315.816-209.487,315.213-209.487"/>
			<g>
				<path style="fill:#3B88C3;" d="M323.075-241.959c-2.378,0-4.597,1.513-5.404,3.891c-0.978,2.981,0.626,6.201,3.607,7.202
					l34.133,11.378c2.981,0.978,6.201-0.626,7.202-3.607c0.99-2.981-0.626-6.201-3.607-7.202l-34.133-11.378
					C324.269-241.868,323.678-241.959,323.075-241.959"/>
				<path style="fill:#3B88C3;" d="M328.252-272.349c-2.378,0-4.597,1.513-5.404,3.891c-0.99,2.981,0.626,6.201,3.607,7.202
					l34.133,11.378c2.981,0.99,6.201-0.626,7.202-3.607c0.979-2.981-0.626-6.201-3.607-7.202l-34.133-11.378
					C329.446-272.258,328.855-272.349,328.252-272.349"/>
				<path style="fill:#3B88C3;" d="M334.407-303.615c-2.378,0-4.597,1.513-5.404,3.891c-0.99,2.981,0.626,6.201,3.607,7.202
					l34.133,11.378c2.981,0.979,6.201-0.626,7.202-3.607c0.978-2.981-0.626-6.201-3.607-7.202l-34.133-11.378
					C335.602-303.524,335.01-303.615,334.407-303.615"/>
			</g>
			<g transform="translate(2.259 -11.04)">
				<path id="SVGCleanerId_2_1_" style="fill:#3B88C3;" d="M340.915-335.098c-2.378,0-4.597,1.513-5.404,3.891
					c-0.99,2.981,0.626,6.201,3.607,7.202l34.133,11.378c2.981,0.99,6.201-0.626,7.202-3.607c0.99-2.981-0.626-6.201-3.607-7.202
					l-34.133-11.378C342.11-335.007,341.518-335.098,340.915-335.098"/>
			</g>
			<g>
				<path style="fill:#3B88C3;" d="M243.783-328.407c-10.718,0-21.515,0.557-29.696,2.219c-3.083,0.637-5.074,3.641-4.449,6.713
					c0.637,3.095,3.686,5.074,6.713,4.449c22.107-4.54,67.652,0.034,68.096,0.08c3.095,0.364,5.928-1.946,6.235-5.086
					c0.319-3.129-1.957-5.916-5.074-6.224C284.333-326.394,264.195-328.407,243.783-328.407"/>
				<path style="fill:#3B88C3;" d="M254.831-293.318c-15.792,0-33.041,0.91-41.722,4.38c-2.924,1.149-4.335,4.46-3.163,7.384
					c1.161,2.913,4.483,4.358,7.384,3.163c12.607-5.018,54.454-3.504,69.507-2.48c2.833,0.182,5.848-2.162,6.064-5.302
					c0.205-3.129-2.162-5.848-5.302-6.053C284.709-292.42,270.498-293.318,254.831-293.318"/>
				<path style="fill:#3B88C3;" d="M240.95-257.148c-12.413,0-23.563,0.705-28.217,2.935c-2.833,1.354-4.028,4.756-2.674,7.589
					s4.767,4.016,7.589,2.674c5.973-2.856,39.788-2.094,69.086,0.273c3.095,0.239,5.882-2.071,6.121-5.2
					c0.262-3.129-2.071-5.871-5.211-6.133C281.364-255.521,259.723-257.148,240.95-257.148"/>
				<path style="fill:#3B88C3;" d="M241.405-221.991c-11.537,0-22.278,0.774-28.274,3.14c-2.924,1.149-4.358,4.449-3.209,7.384
					c1.161,2.924,4.471,4.38,7.384,3.197c11.73-4.597,53.999-1.308,69.291,0.364c3.083,0.353,5.916-1.9,6.269-5.029
					c0.353-3.129-1.911-5.939-5.029-6.281C284.072-219.625,261.544-221.991,241.405-221.991"/>
				<path style="fill:#3B88C3;" d="M239.698-183.785c19.945,0,42.86,1.274,46.672,1.502c3.129,0.182,5.53,2.867,5.348,6.007
					c-0.182,3.14-2.833,5.746-6.007,5.348c-15.724-0.91-59.017-2.697-70.428-0.137c-3.061,0.717-6.11-1.217-6.793-4.289
					c-0.694-3.061,1.229-6.11,4.301-6.793C218.194-183.375,228.48-183.785,239.698-183.785"/>
				<path style="fill:#3B88C3;" d="M287.257-151.733h-0.148l-71.999,3.664c-3.14,0.08-5.621,3.584-5.541,6.724
					c0.08,3.14,2.856,5.814,5.837,5.985l71.999-1.673c3.14-0.08,5.621-4.358,5.541-7.498
					C292.867-147.626,290.341-151.733,287.257-151.733"/>
				<path style="fill:#3B88C3;" d="M216.715-117.6c-2.879,0-5.348,2.173-5.643,5.109c-0.319,3.118,1.946,5.916,5.063,6.246
					l54.83,5.678c3.026,0.319,5.916-1.946,6.235-5.086c0.33-3.118-1.934-5.916-5.063-6.246l-54.818-5.678
					C217.113-117.589,216.92-117.6,216.715-117.6"/>
				<path style="fill:#3B88C3;" d="M210.48-91.351c-1.946,0-3.846,1.001-4.904,2.799c-1.593,2.708-0.694,6.201,2.014,7.794
					c8.385,4.938,58.869,16.407,68.904,18.648c3.095,0.683,6.099-1.252,6.793-4.312c0.683-3.061-1.24-6.11-4.312-6.793
					c-24.212-5.427-60.598-14.393-65.604-17.351C212.46-91.101,211.47-91.351,210.48-91.351"/>
				<path style="fill:#3B88C3;" d="M215.213-55.022c-2.241,0-4.38,1.343-5.268,3.55c-1.183,2.913,0.228,6.224,3.14,7.407
					c18.193,7.384,74.923,10.377,77.335,10.502c3.561,0.296,5.814-2.264,5.973-5.382c0.159-3.14-2.253-5.825-5.393-5.985
					c-15.849-0.819-60.006-4.142-73.66-9.671C216.647-54.886,215.919-55.022,215.213-55.022"/>
				<path style="fill:#3B88C3;" d="M210.48-26.578c-3.026,0-5.541,2.196-5.678,5.245c-0.148,3.14,2.276,5.712,5.416,5.86
					c6.372,0.307,19.672,6.372,26.556,10.149c2.753,1.502,6.212,0.501,7.726-2.264c1.513-2.753,0.501-6.042-2.241-7.555
					c-2.071-1.138-20.446-11.435-31.516-11.435H210.48z"/>
			</g>
		</g>
	</g>
</g>
<g>
</g>
<g>
</g>
<g>
</g>
<g>
</g>
<g>
</g>
<g>
</g>
<g>
</g>
<g>
</g>
<g>
</g>
<g>
</g>
<g>
</g>
<g>
</g>
<g>
</g>
<g>
</g>
<g>
</g>
</svg>
