<?xml version="1.0" encoding="iso-8859-1"?>
<!-- Generator: Adobe Illustrator 19.0.0, SVG Export Plug-In . SVG Version: 6.00 Build 0)  -->
<svg version="1.1" id="Capa_1" xmlns="http://www.w3.org/2000/svg" xmlns:xlink="http://www.w3.org/1999/xlink" x="0px" y="0px"
	 viewBox="0 0 512 512" style="enable-background:new 0 0 512 512;" xml:space="preserve">
<path style="fill:#9BFCFF;" d="M497,316c-9.6,23.099-24.699,44.399-43.001,62.699C439.6,393.1,423.401,404.799,406,413.8
	c-27.299,14.7-58.2,22.2-90,22.2c-5.4,0-11.1-0.3-16.5-0.601L271,293.2l135-26.1l58.001-11.1L497,316z"/>
<path style="fill:#3AAAFF;" d="M467,196H173.101c-26.7,0-48.9-19.801-52.5-45.3C138.9,136.599,150,114.399,150,91V31
	c0-8.401-6.599-15-15-15c-24.6,0-46.5,11.999-60,30.3C61.5,27.999,39.6,16,15,16C6.599,16,0,22.599,0,31v60
	c0,23.699,11.4,45.899,30,60v60c0,106.8,77.5,199.499,181,220.499V481c0,8.399,6.599,15,15,15c36.301,0,66.899-26.1,73.5-60.601
	c0.899-4.501,1.5-9.3,1.5-14.399v-7.8c29.399-18.9,54.6-55.499,59.099-97.2H497c7.8-18.001,15-46.5,15-75.601
	C512,215.799,491.6,196,467,196z"/>
<path style="fill:#76E2F8;" d="M497,316c-9.6,23.099-24.699,44.399-43.001,62.699C439.6,393.1,423.401,404.799,406,413.8V267.1
	l58.001-11.1L497,316z"/>
<path style="fill:#0095FF;" d="M512,240.399c0,29.101-7.2,57.599-15,75.601h-91V196h61C491.6,196,512,215.799,512,240.399z"/>
<circle style="fill:#444444;" cx="286" cy="271" r="15"/>
<path style="fill:#3AAAFF;" d="M481,61c0,8.399-6.599,15-15,15s-15-6.601-15-15c0-8.401-6.599-15-15-15s-15,6.599-15,15v90
	c0,8.399-6.599,15-15,15s-15-6.601-15-15V91c0-8.401-6.599-15-15-15s-15,6.599-15,15c0,8.399-6.599,15-15,15s-15-6.601-15-15
	c0-24.901,20.099-45,45-45c6,0,11.7,1.199,16.8,3.3c2.401-8.401,6.899-15.901,13.2-21.301C413.8,20.499,424.3,16,436,16
	C460.901,16,481,36.099,481,61z"/>
<path style="fill:#0095FF;" d="M406,166V27.999C413.8,20.499,424.3,16,436,16c24.901,0,45,20.099,45,45c0,8.399-6.599,15-15,15
	s-15-6.601-15-15c0-8.401-6.599-15-15-15s-15,6.599-15,15v90C421,159.399,414.401,166,406,166z"/>
<g>
</g>
<g>
</g>
<g>
</g>
<g>
</g>
<g>
</g>
<g>
</g>
<g>
</g>
<g>
</g>
<g>
</g>
<g>
</g>
<g>
</g>
<g>
</g>
<g>
</g>
<g>
</g>
<g>
</g>
</svg>
